<svg xmlns="http://www.w3.org/2000/svg" width="768" height="768"><path d="M173.472 662.4A48.518 48.518 0 0 0 216.32 688a47.934 47.934 0 0 0 21.76-5.12l145.664-76.16a2.248 2.248 0 0 1 1.28-.32l144.672 75.52a47.643 47.643 0 0 0 22.784 5.696c2.528 0 5.088-.224 7.584-.576 26.048-4.256 43.84-28.64 40-54.72l-28.16-160.319c-.157-.227-.205-.243-.217-.268-.007-.013-.007-.023-.007-.051 0-.096.224-.32.224-.32l117.44-113.6c17.344-16.736 19.552-43.712 5.12-63.04a49.215 49.215 0 0 0-32-18.56l-161.984-23.36c-.288 0-.608-.32-.928-.64L427.2 106.882c-8.16-16.416-24.864-26.784-43.2-26.88-5.312 0-10.624.832-15.68 2.56-12.128 4.128-22.144 12.832-27.84 24.32l-72.256 144.864c0 .672-.672.96-1.312.96l-161.6 23.36c-9.888 1.664-19.104 6.08-26.56 12.8-9.44 9.248-14.752 21.952-14.752 35.2.032 12.576 5.088 24.608 14.08 33.376l118.4 113.92c.256.256.352.608.352.96l-28.512 159.68a47.758 47.758 0 0 0 5.152 30.4zm209.606-535.457.32-.224h.608l.288.288c.288 0 .544.064.768.256a.878.878 0 0 1 .256.736l72.32 144.608c6.944 14.24 20.448 24.16 36.128 26.56L655.75 322.72c.288 0 .576.064.832.192.16.032.288.032.448 0l.32.288-.32.704-117.44 113.888a46.391 46.391 0 0 0-13.792 42.848l28.192 159.392-.64.608h-.672a.408.408 0 0 1-.384 0c-.32-.032-.64-.16-.928-.32h-.288l-144-75.2c-6.912-3.584-14.592-5.504-22.4-5.472-8.032 0-15.968 2.016-23.072 5.792l-144.928 76c-.16.032-.352.032-.512 0a1.444 1.444 0 0 1-1.409-1.088v-.64l28.16-159.36c2.624-15.584-2.496-31.488-13.76-42.56l-118.4-113.6c-.032-.48.032-.896.288-1.312l1.952-.64 160.96-23.073c15.68-2.432 29.153-12.32 36.128-26.56l72.352-144.96c.16-.288.352-.544.64-.704z"/></svg>