<svg xmlns="http://www.w3.org/2000/svg" width="800" height="768"><path d="M597.007 461.169c-8.617 8.351-12.576 20.428-10.614 32.273l29.579 163.692c2.496 13.874-3.36 27.914-14.973 35.933-11.378 8.318-26.516 9.316-38.927 2.661l-147.357-76.856c-5.124-2.728-10.813-4.192-16.635-4.358h-9.016c-3.127.466-6.188 1.463-8.983 2.995l-147.39 77.221c-7.286 3.659-15.537 4.957-23.623 3.659-19.697-3.726-32.839-22.491-29.612-42.287l29.612-163.692a37.228 37.228 0 0 0-10.614-32.572L78.313 343.39c-10.048-9.748-13.541-24.388-8.95-37.596 4.458-13.175 15.836-22.791 29.578-24.953l165.356-23.989c12.576-1.296 23.623-8.95 29.279-20.263l72.863-149.386c1.73-3.327 3.959-6.388 6.654-8.983l2.995-2.329a22.352 22.352 0 0 1 5.356-4.325l3.626-1.331 5.656-2.329h14.008c12.511 1.296 23.521 8.783 29.279 19.963L507.84 236.59c5.324 10.88 15.67 18.432 27.614 20.263l165.356 23.989c13.974 1.996 25.652 11.644 30.277 24.953a36.14 36.14 0 0 1-9.649 37.596L597.005 461.169z"/></svg>