<svg xmlns="http://www.w3.org/2000/svg" xml:space="preserve" width="452.572" height="144"><path transform="matrix(1.33333 0 0 -1.33333 73.33 130.566)" style="fill:#d22a36;fill-opacity:1;fill-rule:nonzero;stroke:none" d="m0 0-4.906 12.641 47.421-2.438-2.129-20.232Z"/><path transform="matrix(1.33333 0 0 -1.33333 88.48 0)" style="fill:#d22a36;fill-opacity:1;fill-rule:nonzero;stroke:none" d="m0 0-66.36-31.348 10.263-47.237h13.536l-2.338 33.79 2.077.644 8.139-34.434h14.063l-.521 41.16 2.078.644 7.113-41.804H2.939l3.512 49.718 2.076.644 3.685-50.362H31.9l6.93 69.137z"/><path transform="matrix(1.33333 0 0 -1.33333 361.732 137.113)" style="fill:#d22a36;fill-opacity:1;fill-rule:nonzero;stroke:none" d="m0 0-.137 3.941 13.624.161.125 4.295-13.91.173-.139 3.99 18.326.429.151 4.712H-6.684l-.737-22.866h25.917l-.182 4.721zm-123.275 8.407-.291-4.278 6.876-.23-.087-4.343-14.392.422.627 12.544 19.788.458-.286 4.721h-25.56l-2.292-22.866h29.123l-.755 13.794zm180.39-1.769L38.226 9.831l.082 2.475 18.07.674-.456 4.721H32.694L31.506 5.849 50.709 2.51l.087-2.178-19.98-.776-.49-4.721H58.29Z"/><path transform="matrix(1.33333 0 0 -1.33333 335.116 144)" style="fill:#d22a36;fill-opacity:1;fill-rule:nonzero;stroke:none" d="m0 0-2.292 22.866h-6.58l-9.453-10.9-9.454 10.9h-6.58L-36.651 0h7.73l.74 14.834 9.856-10.113 9.854 10.113L-7.729 0Z"/><path transform="matrix(1.33333 0 0 -1.33333 291.8 1.863)" style="fill:#d22a36;fill-opacity:1;fill-rule:nonzero;stroke:none" d="M0 0h-15.471l-1.408-70.714H1.813Z"/><path transform="matrix(1.33333 0 0 -1.33333 355.717 75.64)" style="fill:#d22a36;fill-opacity:1;fill-rule:nonzero;stroke:none" d="m0 0-17.071-.551-.566 41.588 17.854-.541zm14.961 55.301h-48.234l-1.878-70.683h53.537z"/><path transform="matrix(1.33333 0 0 -1.33333 452.571 22.497)" style="fill:#d22a36;fill-opacity:1;fill-rule:nonzero;stroke:none" d="m0 0-1.723 15.475h-47.524l.402-13.785 15.2-.526 1.558-56.403h18.73L-18.96.656Z"/><path transform="matrix(1.33333 0 0 -1.33333 207.602 21.151)" style="fill:#d22a36;fill-opacity:1;fill-rule:nonzero;stroke:none" d="m0 0 14.908.499 1.699-14.089L-.6-21.718Zm17.417-56.248H37.72L24.488-24.511l10.559 5.769-7.214 33.208h-51.828L-25.701-.859l11.594.387-5.591-55.776h18.145l.491 17.78 13.074 7.142z"/><path transform="matrix(1.33333 0 0 -1.33333 243.991 130.259)" style="fill:#d22a36;fill-opacity:1;fill-rule:nonzero;stroke:none" d="m0 0 1.572 7.481 7.548.341L10.697.315Zm12.93-10.306h7.827l-6.193 22.867H-3.801l-6.192-22.867h7.827l1.212 5.769 12.706-.164z"/></svg>